<mxfile host="app.diagrams.net" modified="2023-09-20T19:03:55.503Z" agent="Mozilla/5.0 (Windows NT 10.0; Win64; x64) AppleWebKit/537.36 (KHTML, like Gecko) Chrome/116.0.0.0 Safari/537.36" etag="iz9gATXJE48KzzqPyCzc" version="21.7.5" type="github">
  <diagram name="Page-1" id="YW19ZZyG93Ktc4ON_m9Q">
    <mxGraphModel dx="1687" dy="1982" grid="1" gridSize="10" guides="1" tooltips="1" connect="1" arrows="1" fold="1" page="1" pageScale="1" pageWidth="850" pageHeight="1100" math="0" shadow="0">
      <root>
        <mxCell id="0" />
        <mxCell id="1" parent="0" />
        <mxCell id="LmAUTlIVcycE5RsRziR3-10" style="edgeStyle=orthogonalEdgeStyle;rounded=0;orthogonalLoop=1;jettySize=auto;html=1;exitX=0.25;exitY=1;exitDx=0;exitDy=0;entryX=0.25;entryY=0;entryDx=0;entryDy=0;endArrow=none;endFill=0;" edge="1" parent="1" source="LmAUTlIVcycE5RsRziR3-5" target="LmAUTlIVcycE5RsRziR3-8">
          <mxGeometry relative="1" as="geometry" />
        </mxCell>
        <mxCell id="LmAUTlIVcycE5RsRziR3-11" style="edgeStyle=orthogonalEdgeStyle;rounded=0;orthogonalLoop=1;jettySize=auto;html=1;exitX=0.75;exitY=1;exitDx=0;exitDy=0;entryX=0.75;entryY=0;entryDx=0;entryDy=0;endArrow=none;endFill=0;" edge="1" parent="1" source="LmAUTlIVcycE5RsRziR3-5" target="LmAUTlIVcycE5RsRziR3-8">
          <mxGeometry relative="1" as="geometry" />
        </mxCell>
        <mxCell id="LmAUTlIVcycE5RsRziR3-42" style="edgeStyle=orthogonalEdgeStyle;rounded=0;orthogonalLoop=1;jettySize=auto;html=1;exitX=1;exitY=0.75;exitDx=0;exitDy=0;entryX=0;entryY=0.75;entryDx=0;entryDy=0;endArrow=none;endFill=0;" edge="1" parent="1" source="LmAUTlIVcycE5RsRziR3-5" target="LmAUTlIVcycE5RsRziR3-6">
          <mxGeometry relative="1" as="geometry" />
        </mxCell>
        <mxCell id="LmAUTlIVcycE5RsRziR3-5" value="Colocation 1" style="rounded=0;whiteSpace=wrap;html=1;verticalAlign=top;" vertex="1" parent="1">
          <mxGeometry x="90" y="120" width="200" height="80" as="geometry" />
        </mxCell>
        <mxCell id="LmAUTlIVcycE5RsRziR3-12" style="edgeStyle=orthogonalEdgeStyle;rounded=0;orthogonalLoop=1;jettySize=auto;html=1;exitX=0.25;exitY=1;exitDx=0;exitDy=0;entryX=0.25;entryY=0;entryDx=0;entryDy=0;endArrow=none;endFill=0;" edge="1" parent="1" source="LmAUTlIVcycE5RsRziR3-6" target="LmAUTlIVcycE5RsRziR3-9">
          <mxGeometry relative="1" as="geometry" />
        </mxCell>
        <mxCell id="LmAUTlIVcycE5RsRziR3-13" style="edgeStyle=orthogonalEdgeStyle;rounded=0;orthogonalLoop=1;jettySize=auto;html=1;exitX=0.75;exitY=1;exitDx=0;exitDy=0;entryX=0.75;entryY=0;entryDx=0;entryDy=0;endArrow=none;endFill=0;" edge="1" parent="1" source="LmAUTlIVcycE5RsRziR3-6" target="LmAUTlIVcycE5RsRziR3-9">
          <mxGeometry relative="1" as="geometry" />
        </mxCell>
        <mxCell id="LmAUTlIVcycE5RsRziR3-6" value="Colocation 2" style="rounded=0;whiteSpace=wrap;html=1;verticalAlign=top;" vertex="1" parent="1">
          <mxGeometry x="640" y="120" width="200" height="80" as="geometry" />
        </mxCell>
        <mxCell id="LmAUTlIVcycE5RsRziR3-7" value="&lt;b&gt;&lt;font style=&quot;font-size: 15px;&quot;&gt;Transit Layer&lt;/font&gt;&lt;/b&gt;&lt;br&gt;Fully Redundant&amp;nbsp;&lt;br&gt;Meshed&lt;br&gt;Active-Active" style="text;html=1;align=center;verticalAlign=middle;resizable=0;points=[];autosize=1;strokeColor=none;fillColor=none;" vertex="1" parent="1">
          <mxGeometry x="410" y="110" width="120" height="70" as="geometry" />
        </mxCell>
        <mxCell id="LmAUTlIVcycE5RsRziR3-8" value="Region 1" style="rounded=0;whiteSpace=wrap;html=1;verticalAlign=top;align=right;" vertex="1" parent="1">
          <mxGeometry x="10" y="400" width="360" height="280" as="geometry" />
        </mxCell>
        <mxCell id="LmAUTlIVcycE5RsRziR3-9" value="Region 2" style="rounded=0;whiteSpace=wrap;html=1;verticalAlign=top;align=right;" vertex="1" parent="1">
          <mxGeometry x="560" y="400" width="360" height="280" as="geometry" />
        </mxCell>
        <mxCell id="LmAUTlIVcycE5RsRziR3-14" value="&lt;b&gt;&lt;font style=&quot;font-size: 15px;&quot;&gt;Access Layer&lt;/font&gt;&lt;/b&gt;&lt;br&gt;Regionally Redundant&amp;nbsp;&lt;br&gt;Active-Active" style="text;html=1;align=center;verticalAlign=middle;resizable=0;points=[];autosize=1;strokeColor=none;fillColor=none;" vertex="1" parent="1">
          <mxGeometry x="395" y="410" width="140" height="60" as="geometry" />
        </mxCell>
        <mxCell id="LmAUTlIVcycE5RsRziR3-20" style="edgeStyle=orthogonalEdgeStyle;rounded=0;orthogonalLoop=1;jettySize=auto;html=1;exitX=1;exitY=0.5;exitDx=0;exitDy=0;entryX=0;entryY=0.5;entryDx=0;entryDy=0;endArrow=none;endFill=0;" edge="1" parent="1" source="LmAUTlIVcycE5RsRziR3-16" target="LmAUTlIVcycE5RsRziR3-17">
          <mxGeometry relative="1" as="geometry" />
        </mxCell>
        <mxCell id="LmAUTlIVcycE5RsRziR3-16" value="Routing/LB" style="rounded=0;whiteSpace=wrap;html=1;" vertex="1" parent="1">
          <mxGeometry x="50" y="440" width="120" height="40" as="geometry" />
        </mxCell>
        <mxCell id="LmAUTlIVcycE5RsRziR3-17" value="Routing/LB" style="rounded=0;whiteSpace=wrap;html=1;" vertex="1" parent="1">
          <mxGeometry x="200" y="440" width="120" height="40" as="geometry" />
        </mxCell>
        <mxCell id="LmAUTlIVcycE5RsRziR3-21" style="edgeStyle=orthogonalEdgeStyle;rounded=0;orthogonalLoop=1;jettySize=auto;html=1;exitX=1;exitY=0.5;exitDx=0;exitDy=0;entryX=0;entryY=0.5;entryDx=0;entryDy=0;endArrow=none;endFill=0;" edge="1" parent="1" source="LmAUTlIVcycE5RsRziR3-18" target="LmAUTlIVcycE5RsRziR3-19">
          <mxGeometry relative="1" as="geometry" />
        </mxCell>
        <mxCell id="LmAUTlIVcycE5RsRziR3-18" value="Routing/LB" style="rounded=0;whiteSpace=wrap;html=1;" vertex="1" parent="1">
          <mxGeometry x="590" y="440" width="120" height="40" as="geometry" />
        </mxCell>
        <mxCell id="LmAUTlIVcycE5RsRziR3-19" value="Routing/LB" style="rounded=0;whiteSpace=wrap;html=1;" vertex="1" parent="1">
          <mxGeometry x="770" y="440" width="120" height="40" as="geometry" />
        </mxCell>
        <mxCell id="LmAUTlIVcycE5RsRziR3-22" value="&lt;b&gt;&lt;font style=&quot;font-size: 15px;&quot;&gt;Application Layer&lt;/font&gt;&lt;/b&gt;&lt;br&gt;Regionally Resilient&lt;br&gt;Vertically/Horizontally Scalable&amp;nbsp;&lt;br&gt;Regional Active-Active&lt;br&gt;Globally Active-Active" style="text;html=1;align=center;verticalAlign=middle;resizable=0;points=[];autosize=1;strokeColor=none;fillColor=none;" vertex="1" parent="1">
          <mxGeometry x="370" y="505" width="190" height="90" as="geometry" />
        </mxCell>
        <mxCell id="LmAUTlIVcycE5RsRziR3-24" value="Application" style="ellipse;whiteSpace=wrap;html=1;" vertex="1" parent="1">
          <mxGeometry x="130" y="530" width="110" height="50" as="geometry" />
        </mxCell>
        <mxCell id="LmAUTlIVcycE5RsRziR3-25" value="Application" style="ellipse;whiteSpace=wrap;html=1;" vertex="1" parent="1">
          <mxGeometry x="685" y="525" width="110" height="50" as="geometry" />
        </mxCell>
        <mxCell id="LmAUTlIVcycE5RsRziR3-38" style="edgeStyle=orthogonalEdgeStyle;rounded=0;orthogonalLoop=1;jettySize=auto;html=1;exitX=0.5;exitY=1;exitDx=0;exitDy=0;entryX=0.5;entryY=0;entryDx=0;entryDy=0;endArrow=none;endFill=0;" edge="1" parent="1" source="LmAUTlIVcycE5RsRziR3-31" target="LmAUTlIVcycE5RsRziR3-5">
          <mxGeometry relative="1" as="geometry" />
        </mxCell>
        <mxCell id="LmAUTlIVcycE5RsRziR3-39" style="rounded=0;orthogonalLoop=1;jettySize=auto;html=1;exitX=0.5;exitY=1;exitDx=0;exitDy=0;entryX=0.5;entryY=0;entryDx=0;entryDy=0;endArrow=none;endFill=0;" edge="1" parent="1" source="LmAUTlIVcycE5RsRziR3-31" target="LmAUTlIVcycE5RsRziR3-6">
          <mxGeometry relative="1" as="geometry" />
        </mxCell>
        <mxCell id="LmAUTlIVcycE5RsRziR3-31" value="CDN/Public Zone" style="rounded=0;whiteSpace=wrap;html=1;verticalAlign=top;" vertex="1" parent="1">
          <mxGeometry x="90" y="-80" width="200" height="80" as="geometry" />
        </mxCell>
        <mxCell id="LmAUTlIVcycE5RsRziR3-40" style="rounded=0;orthogonalLoop=1;jettySize=auto;html=1;exitX=0.5;exitY=1;exitDx=0;exitDy=0;entryX=0.5;entryY=0;entryDx=0;entryDy=0;endArrow=none;endFill=0;" edge="1" parent="1" source="LmAUTlIVcycE5RsRziR3-32" target="LmAUTlIVcycE5RsRziR3-5">
          <mxGeometry relative="1" as="geometry" />
        </mxCell>
        <mxCell id="LmAUTlIVcycE5RsRziR3-41" style="edgeStyle=orthogonalEdgeStyle;rounded=0;orthogonalLoop=1;jettySize=auto;html=1;exitX=0.5;exitY=1;exitDx=0;exitDy=0;entryX=0.5;entryY=0;entryDx=0;entryDy=0;endArrow=none;endFill=0;" edge="1" parent="1" source="LmAUTlIVcycE5RsRziR3-32" target="LmAUTlIVcycE5RsRziR3-6">
          <mxGeometry relative="1" as="geometry" />
        </mxCell>
        <mxCell id="LmAUTlIVcycE5RsRziR3-32" value="CDN/Public Zone" style="rounded=0;whiteSpace=wrap;html=1;verticalAlign=top;" vertex="1" parent="1">
          <mxGeometry x="640" y="-80" width="200" height="80" as="geometry" />
        </mxCell>
        <mxCell id="LmAUTlIVcycE5RsRziR3-33" value="&lt;b&gt;&lt;font style=&quot;font-size: 15px;&quot;&gt;Edge Layer&lt;/font&gt;&lt;/b&gt;&lt;br&gt;Fully Redundant&amp;nbsp;&lt;br&gt;Meshed&lt;br&gt;Active-Active" style="text;html=1;align=center;verticalAlign=middle;resizable=0;points=[];autosize=1;strokeColor=none;fillColor=none;" vertex="1" parent="1">
          <mxGeometry x="415" y="-85" width="110" height="70" as="geometry" />
        </mxCell>
        <mxCell id="LmAUTlIVcycE5RsRziR3-35" value="Data" style="shape=cylinder3;whiteSpace=wrap;html=1;boundedLbl=1;backgroundOutline=1;size=15;" vertex="1" parent="1">
          <mxGeometry x="160" y="610" width="50" height="60" as="geometry" />
        </mxCell>
        <mxCell id="LmAUTlIVcycE5RsRziR3-36" value="Data" style="shape=cylinder3;whiteSpace=wrap;html=1;boundedLbl=1;backgroundOutline=1;size=15;" vertex="1" parent="1">
          <mxGeometry x="715" y="600" width="50" height="60" as="geometry" />
        </mxCell>
        <mxCell id="LmAUTlIVcycE5RsRziR3-37" value="&lt;b&gt;&lt;font style=&quot;font-size: 15px;&quot;&gt;Data Layer&lt;/font&gt;&lt;/b&gt;&lt;br&gt;Replicated&lt;br&gt;Backup" style="text;html=1;align=center;verticalAlign=middle;resizable=0;points=[];autosize=1;strokeColor=none;fillColor=none;" vertex="1" parent="1">
          <mxGeometry x="415" y="625" width="100" height="60" as="geometry" />
        </mxCell>
      </root>
    </mxGraphModel>
  </diagram>
</mxfile>
